<svg width="20" height="20" viewBox="0 0 20 20" fill="none" xmlns="http://www.w3.org/2000/svg">
<path fill-rule="evenodd" clip-rule="evenodd" d="M10 1.875C10.3452 1.875 10.625 2.15482 10.625 2.5V14.375C10.625 14.7202 10.3452 15 10 15C9.65482 15 9.375 14.7202 9.375 14.375V2.5C9.375 2.15482 9.65482 1.875 10 1.875Z" fill="#111D4A"/>
<path fill-rule="evenodd" clip-rule="evenodd" d="M3.93306 8.30806C4.17714 8.06398 4.57286 8.06398 4.81694 8.30806L10 13.4911L15.1831 8.30806C15.4271 8.06398 15.8229 8.06398 16.0669 8.30806C16.311 8.55214 16.311 8.94786 16.0669 9.19194L10.4419 14.8169C10.1979 15.061 9.80214 15.061 9.55806 14.8169L3.93306 9.19194C3.68898 8.94786 3.68898 8.55214 3.93306 8.30806Z" fill="#111D4A"/>
<path fill-rule="evenodd" clip-rule="evenodd" d="M2.5 16.875C2.5 16.5298 2.77982 16.25 3.125 16.25H16.875C17.2202 16.25 17.5 16.5298 17.5 16.875C17.5 17.2202 17.2202 17.5 16.875 17.5H3.125C2.77982 17.5 2.5 17.2202 2.5 16.875Z" fill="#111D4A"/>
</svg>
